<svg xmlns="http://www.w3.org/2000/svg" xml:space="preserve" viewBox="0 0 512 512"><path d="M255.999 317.793 67.538 361.284c-24.032 5.546-41.056 26.945-41.056 51.609v81.451c0 9.751 7.904 17.655 17.655 17.655h423.724c9.751 0 17.655-7.904 17.655-17.655v-81.451c0-24.663-17.024-46.063-41.056-51.609l-188.461-43.491z" style="fill:#ffc855"/><path d="M185.379 282.483H326.62v97.103H185.379z" style="fill:#e6b47d"/><path d="M185.379 282.483v72.063c83.538 10.93 141.241-63.235 141.241-63.235v-8.828H185.379z" style="fill:#d2a073"/><path d="M361.93 159.34v-53.409H150.068v130.55c0 17.709 8.17 34.247 21.771 44.07l39.249 28.346c8.031 5.8 17.468 8.896 27.121 8.896h35.582c9.652 0 19.089-3.095 27.119-8.896l39.249-28.346c13.601-9.823 21.771-26.36 21.771-44.07v-16.235c10.073-2.045 17.655-10.95 17.655-21.625v-17.655c.001-10.677-7.581-19.581-17.655-21.626z" style="fill:#f0c891"/><path d="M204.546 147.165c29.346 5.13 81.786 11.732 157.385 11.732v-52.966H150.068v53.409c-10.073 2.045-17.655 10.95-17.655 21.625v17.655c0 10.676 7.582 19.581 17.655 21.625v16.235c0 17.709 8.17 34.247 21.771 44.07l39.249 28.346c8.031 5.8 17.468 8.896 27.121 8.896h8.963c-12.886 0-35.178-32.919-46.28-50.702a44.014 44.014 0 0 1-6.686-23.364v-87.869c0-5.498 4.924-9.639 10.34-8.692z" style="fill:#e6b47d"/><path d="M247.172 0c-61.793 0-70.621 26.483-70.621 26.483-35.31 0-52.966 8.828-52.966 44.138 0 23.724 8.828 97.103 8.828 97.103l17.655 8.828 16.455-61.841s80.649 26.53 186.58 26.53l8.828 35.31 17.655-8.828s8.828-52.966 8.828-88.276C388.413 26.483 317.793 0 247.172 0z" style="fill:#8c6450"/><path d="M176.551 26.483c-35.31 0-52.966 8.828-52.966 44.138 0 23.724 8.828 97.103 8.828 97.103l17.655 8.828 16.455-61.841s80.649 26.53 186.58 26.53C229.517 114.759 176.551 52.966 176.551 26.483z" style="fill:#7d5541"/><path d="M194.21 194.211a8.806 8.806 0 0 1-2.793-.457l-52.966-17.655a8.829 8.829 0 0 1-5.582-11.168c1.543-4.621 6.535-7.147 11.168-5.582l52.966 17.655a8.829 8.829 0 0 1 5.582 11.168 8.832 8.832 0 0 1-8.375 6.039zm123.586 0a8.83 8.83 0 0 1-8.375-6.039 8.829 8.829 0 0 1 5.582-11.168l52.966-17.655c4.633-1.565 9.625.961 11.168 5.582a8.829 8.829 0 0 1-5.582 11.168l-52.966 17.655a8.773 8.773 0 0 1-2.793.457z" style="fill:#464655"/><path d="M256.001 279.072c-10.767 0-21.185-2.146-30.13-6.198-4.439-2.017-6.406-7.25-4.392-11.69a8.817 8.817 0 0 1 11.686-4.396c13.345 6.051 32.328 6.051 45.673 0a8.822 8.822 0 0 1 11.686 4.396c2.013 4.439.047 9.673-4.392 11.69-8.95 4.052-19.368 6.198-30.131 6.198z" style="fill:#d2a073"/><path d="M229.517 211.862h-35.31a8.829 8.829 0 0 1-8.828-8.828v-17.655a8.829 8.829 0 0 1 8.828-8.828h35.31a8.829 8.829 0 0 1 8.828 8.828v17.655a8.829 8.829 0 0 1-8.828 8.828z" style="fill:#fff"/><path d="M211.862 203.034c-4.855 0-8.828-3.972-8.828-8.828v-8.828c0-4.855 3.972-8.828 8.828-8.828 4.855 0 8.828 3.972 8.828 8.828v8.828c-.001 4.856-3.973 8.828-8.828 8.828z" style="fill:#5a4137"/><path d="M282.482 211.862h35.31a8.829 8.829 0 0 0 8.828-8.828v-17.655a8.829 8.829 0 0 0-8.828-8.828h-35.31a8.829 8.829 0 0 0-8.828 8.828v17.655a8.829 8.829 0 0 0 8.828 8.828z" style="fill:#fff"/><path d="M300.137 203.034c-4.855 0-8.828-3.972-8.828-8.828v-8.828c0-4.855 3.972-8.828 8.828-8.828 4.855 0 8.828 3.972 8.828 8.828v8.828c0 4.856-3.972 8.828-8.828 8.828z" style="fill:#5a4137"/><path d="M273.655 203.034a8.829 8.829 0 0 1-8.828-8.828c0-4.866-3.961-8.828-8.828-8.828-4.866 0-8.828 3.961-8.828 8.828a8.829 8.829 0 0 1-17.656 0c0-14.603 11.88-26.483 26.483-26.483s26.483 11.88 26.483 26.483a8.826 8.826 0 0 1-8.826 8.828z" style="fill:#464655"/><path d="M238.344 203.034a8.829 8.829 0 0 1-8.828-8.828v-8.828h-35.31v8.828a8.829 8.829 0 0 1-17.656 0v-8.828c0-9.737 7.918-17.655 17.655-17.655h35.31c9.737 0 17.655 7.918 17.655 17.655v8.828a8.825 8.825 0 0 1-8.826 8.828zm88.276 0a8.829 8.829 0 0 1-8.828-8.828v-8.828h-35.31v8.828a8.829 8.829 0 0 1-17.656 0v-8.828c0-9.737 7.918-17.655 17.655-17.655h35.31c9.737 0 17.655 7.918 17.655 17.655v8.828a8.825 8.825 0 0 1-8.826 8.828z" style="fill:#707487"/><path d="m95.588 431.037-54.455-54.455c-9.075 9.583-14.65 22.366-14.65 36.312v81.451c0 9.751 7.904 17.655 17.655 17.655h61.793v-55.994a35.315 35.315 0 0 0-10.343-24.969zm320.823 0 54.455-54.455c9.076 9.582 14.652 22.365 14.652 36.311v81.452c0 9.751-7.904 17.655-17.655 17.655H406.07v-55.994a35.3 35.3 0 0 1 10.341-24.969z" style="fill:#ffaf4b"/><path d="M255.999 476.69c-9.751 0-17.655-7.904-17.655-17.655v-79.448h35.31v79.448c.001 9.751-7.903 17.655-17.655 17.655z" style="fill:#d5dcec"/><path d="M185.379 308.966 256 379.587s-28.808 7.202-53.898 34.616c-3.699 4.042-10.346 2.814-12.22-2.335-7.521-20.669-22.767-62.627-28.622-78.742a8.817 8.817 0 0 1 3.404-10.35l20.715-13.81z" style="fill:#e4eaf6"/><path d="m326.62 308.966-70.621 70.621s28.808 7.202 53.898 34.616c3.699 4.042 10.346 2.814 12.22-2.335 7.521-20.669 22.767-62.627 28.623-78.742a8.817 8.817 0 0 0-3.404-10.35l-20.716-13.81z" style="fill:#e4eaf6"/><circle cx="255.999" cy="450.207" r="8.828" style="fill:#ffaf4b"/><circle cx="255.999" cy="414.897" r="8.828" style="fill:#ffaf4b"/></svg>